<svg width="16" height="16" viewBox="0 0 16 16" fill="none" xmlns="http://www.w3.org/2000/svg">
<g clip-path="url(#clip0_2_2)">
<rect x="3.05176e-05" y="7.62939e-06" width="16" height="16" rx="4" fill="#005FCF" fill-opacity="0.81"/>
<path d="M5.43688 14.392C4.78621 14.392 4.29554 14.2853 3.96488 14.072C3.63421 13.8587 3.46354 13.5067 3.45288 13.016C3.45288 12.9093 3.51154 12.856 3.62888 12.856C3.72488 12.856 3.86888 12.8827 4.06088 12.936C4.26354 12.9787 4.64221 13 5.19688 13C6.13554 13 6.99954 12.904 7.78888 12.712C8.57821 12.5093 9.26088 12.2427 9.83688 11.912C10.4235 11.5707 10.8769 11.192 11.1969 10.776C11.5169 10.3493 11.6769 9.90667 11.6769 9.448C11.6769 9.032 11.5489 8.70133 11.2929 8.456C11.0475 8.2 10.7169 8.008 10.3009 7.88C9.89554 7.74133 9.44754 7.65067 8.95688 7.608C8.47688 7.56533 8.00221 7.544 7.53288 7.544C7.33021 7.544 7.12754 7.54933 6.92488 7.56C6.72221 7.56 6.53021 7.56 6.34888 7.56C6.11421 8.37067 5.88488 9.208 5.66088 10.072C5.43688 10.936 5.20221 11.784 4.95688 12.616C4.63688 12.616 4.35954 12.5307 4.12488 12.36C3.89021 12.1893 3.77288 11.9813 3.77288 11.736C3.77288 11.64 3.78888 11.5173 3.82088 11.368C3.86354 11.208 3.92221 11.0213 3.99688 10.808C4.06088 10.6053 4.16754 10.2693 4.31688 9.8C4.47688 9.33067 4.66354 8.776 4.87688 8.136C5.09021 7.496 5.32488 6.824 5.58088 6.12C5.84754 5.40533 6.11954 4.70667 6.39688 4.024C6.68488 3.34133 6.96754 2.728 7.24488 2.184C6.81821 2.28 6.46621 2.392 6.18888 2.52C5.91154 2.648 5.69288 2.76 5.53288 2.856C5.37288 2.952 5.25021 3 5.16488 3C5.10088 3 5.01554 2.96267 4.90887 2.888C4.81288 2.81333 4.72221 2.728 4.63688 2.632C4.56221 2.536 4.52488 2.45067 4.52488 2.376C5.10088 2.14133 5.69821 1.93333 6.31688 1.752C6.93554 1.57067 7.68221 1.48 8.55688 1.48C8.94088 1.48 9.36221 1.512 9.82088 1.576C10.2795 1.62933 10.7169 1.74667 11.1329 1.928C11.5489 2.09867 11.8902 2.36 12.1569 2.712C12.4342 3.05333 12.5729 3.512 12.5729 4.088C12.5729 4.54667 12.4715 4.94667 12.2689 5.288C12.0769 5.61867 11.8155 5.90667 11.4849 6.152C11.1542 6.38667 10.7915 6.584 10.3969 6.744C10.0022 6.89333 9.61288 7.016 9.22888 7.112C9.89021 7.19733 10.4395 7.336 10.8769 7.528C11.3249 7.70933 11.6769 7.92267 11.9329 8.168C12.1995 8.41333 12.3862 8.66933 12.4929 8.936C12.6102 9.192 12.6689 9.44267 12.6689 9.688C12.6689 10.3173 12.5035 10.8827 12.1729 11.384C11.8422 11.8853 11.4049 12.3227 10.8609 12.696C10.3275 13.0693 9.73554 13.3787 9.08488 13.624C8.44488 13.88 7.80488 14.072 7.16488 14.2C6.52488 14.328 5.94888 14.392 5.43688 14.392ZM6.50888 6.952C7.10621 6.93067 7.69288 6.86133 8.26888 6.744C8.84488 6.62667 9.36221 6.456 9.82088 6.232C10.2902 5.99733 10.6635 5.69867 10.9409 5.336C11.2182 4.96267 11.3569 4.504 11.3569 3.96C11.3569 3.448 11.2182 3.05333 10.9409 2.776C10.6635 2.49867 10.3009 2.30667 9.85288 2.2C9.40488 2.09333 8.92488 2.04 8.41288 2.04C8.40221 2.04 8.39154 2.04 8.38088 2.04C8.37021 2.04 8.35954 2.04 8.34888 2.04C7.98621 2.75467 7.65554 3.53333 7.35688 4.376C7.05821 5.208 6.77554 6.06667 6.50888 6.952Z" fill="white"/>
</g>
<defs>
<clipPath id="clip0_2_2">
<rect x="3.05176e-05" y="7.62939e-06" width="16" height="16" rx="4" fill="white"/>
</clipPath>
</defs>
</svg>
